<svg width="216" height="28" viewBox="0 0 216 28" fill="none" xmlns="http://www.w3.org/2000/svg">
<path d="M29.8017 2.03682L9.50981 19.9974L8.51054 18.9981L25.1629 0.000135252H28.2036L29.8017 2.03682ZM9.1461 0L0.51355 11.0011L1.50395 11.9915L15.9342 0H9.1461ZM17.1558 0L4.51117 14.9987L5.50749 15.9951L23.9109 0H17.1558ZM30.3952 2.79326L12.5115 22.9991L13.5113 23.9988L33.2949 6.48868L30.3952 2.79326ZM33.9402 7.31093L16.5129 27.0005L17.5126 28L36.7876 10.9396L33.9402 7.31093Z" fill="url(#paint0_linear_333_780)"/>
<path d="M81.2007 20.7939H69.6148C70.0153 23.0433 71.4945 24.3374 73.7745 24.3374C75.4076 24.3374 76.3628 23.721 76.8559 22.6427H80.8617C79.9374 25.8473 77.2565 27.5728 73.6206 27.5728C69.2143 27.5728 65.9789 24.2757 65.9789 19.5613C65.9789 14.8467 69.2143 11.5498 73.6206 11.5498C78.0269 11.5498 81.2624 14.8469 81.2624 19.5613C81.2624 19.9927 81.2316 20.3934 81.2007 20.7939ZM69.6457 18.1747H77.5955C77.1949 16.0178 75.7775 14.7852 73.6206 14.7852C71.4636 14.7852 70.0462 16.0178 69.6457 18.1747Z" fill="#E2E2F6"/>
<path d="M89.4248 11.8582H93.4306V15.0936H89.4248V27.2648H85.7272V15.0936H83.2621V11.8582H85.7272V9.54723C85.7272 5.97282 88.2848 3.84668 91.6742 3.84668C92.4445 3.84668 93.2149 3.93909 93.7387 4.09327V7.48274C93.2457 7.32868 92.6294 7.23628 92.0131 7.23628C90.4108 7.23628 89.4248 8.0682 89.4248 9.63977V11.8582Z" fill="#E2E2F6"/>
<path d="M96.3556 6.46573C96.3556 5.14076 97.3416 4.15479 98.6665 4.15479C100.022 4.15479 100.978 5.14076 100.978 6.46573C100.978 7.75995 100.022 8.77668 98.6665 8.77668C97.3417 8.77668 96.3556 7.75995 96.3556 6.46573ZM96.8179 27.2648V19.4074V11.858H100.516V18.1748V27.2648H96.8179Z" fill="#E2E2F6"/>
<path d="M108.836 27.2647H105.138V11.8579H108.836V14.0766C109.791 12.4435 111.362 11.5498 113.273 11.5498C116.539 11.5498 119.004 13.7067 119.004 18.0515V27.2647H115.306V18.7909C115.306 16.2026 114.074 14.7851 112.071 14.7851C110.068 14.7851 108.836 16.2025 108.836 18.7909V27.2647H108.836Z" fill="#E2E2F6"/>
<path d="M137.614 20.7939H126.028C126.428 23.0433 127.907 24.3374 130.188 24.3374C131.821 24.3374 132.776 23.721 133.269 22.6427H137.274C136.35 25.8473 133.669 27.5728 130.034 27.5728C125.627 27.5728 122.392 24.2757 122.392 19.5613C122.392 14.8467 125.627 11.5498 130.034 11.5498C134.44 11.5498 137.676 14.8469 137.676 19.5613C137.674 19.9927 137.644 20.3934 137.614 20.7939ZM126.058 18.1747H134.008C133.608 16.0178 132.19 14.7852 130.033 14.7852C127.876 14.7852 126.459 16.0178 126.058 18.1747Z" fill="#E2E2F6"/>
<path d="M152.888 23.7091V4.15479H149.19V27.2649V27.2652H163.141V23.7091H152.888Z" fill="#E2E2F6"/>
<path d="M176.065 24.9845C175.08 26.8025 173.292 27.5728 171.166 27.5728C168.516 27.5728 165.99 26.2478 165.99 23.1357C165.99 16.5108 176.004 19.469 176.004 16.3875C176.004 15.1859 174.771 14.4771 173.168 14.4771C171.475 14.4771 170.304 15.3707 170.304 17.0963H166.452C166.452 13.0905 169.718 11.5498 173.168 11.5498C176.558 11.5498 179.701 12.9364 179.701 16.5416V27.2647H176.065V24.9845ZM171.937 24.4916C174.094 24.4916 176.065 23.259 176.065 20.9172V20.2084C173.601 21.2253 169.78 20.9172 169.78 22.8892C169.78 23.9676 170.704 24.4916 171.937 24.4916Z" fill="#E2E2F6"/>
<path d="M192.334 27.573C190.485 27.573 188.883 26.7411 187.713 25.3237V27.2649H184.015V4.15479H187.713V13.7994C188.883 12.382 190.485 11.5501 192.334 11.5501C196.556 11.5501 199.729 14.8471 199.729 19.5616C199.729 24.276 196.556 27.573 192.334 27.573ZM187.713 19.5616C187.713 22.3348 189.499 24.1835 191.872 24.1835C194.244 24.1835 196.032 22.3347 196.032 19.5616C196.032 16.7883 194.244 14.9395 191.872 14.9395C189.499 14.9395 187.713 16.7883 187.713 19.5616Z" fill="#E2E2F6"/>
<path d="M209.125 27.5728C205.273 27.5728 202.346 25.6007 202.346 22.1805H206.197C206.197 23.8445 207.461 24.6764 209.125 24.6764C210.665 24.6764 211.589 24.1217 211.589 22.9817C211.589 19.7154 202.623 22.4886 202.623 16.2026C202.623 13.3369 205.242 11.5498 208.663 11.5498C212.36 11.5498 215.134 13.83 215.134 16.7573H211.282C211.282 15.4632 210.172 14.4771 208.663 14.4771C207.275 14.4771 206.351 15.0626 206.351 16.0487C206.351 19.0067 215.41 16.4801 215.41 22.8276C215.41 25.7548 212.73 27.5728 209.125 27.5728Z" fill="#E2E2F6"/>
<path d="M59.7641 27.2649H63.9519L59.0354 18.6993C61.6498 17.4901 63.4676 14.851 63.4676 11.7811C63.4676 7.5691 59.9329 4.15479 55.7209 4.15479H49.8255H46.1281V19.4074V27.2649H49.8258V19.4074H55.2541L59.7641 27.2649ZM49.8258 7.71093H55.7212C57.9655 7.71093 59.7916 9.53688 59.7916 11.7812C59.7916 14.0255 57.9655 15.8515 55.7212 15.8515H49.8258V7.71093Z" fill="#E2E2F6"/>
<defs>
<linearGradient id="paint0_linear_333_780" x1="8.97453" y1="19.4621" x2="28.32" y2="0.116626" gradientUnits="userSpaceOnUse">
<stop stop-color="#3FAAF6"/>
<stop offset="0.9" stop-color="#24DC71"/>
</linearGradient>
</defs>
</svg>
